<svg xmlns="http://www.w3.org/2000/svg" xmlns:xlink="http://www.w3.org/1999/xlink" width="1920" height="1080.5" viewBox="0 0 1920 1080.5">
  <defs>
    <clipPath id="clip-path">
      <rect id="Rectangle_307" data-name="Rectangle 307" width="32" height="32" transform="translate(5385 3276)" fill="none"/>
    </clipPath>
  </defs>
  <g id="Group_806" data-name="Group 806" transform="translate(-4004 -2338.5)">
    <g id="Mask_Group_6" data-name="Mask Group 6" clip-path="url(#clip-path)">
      <g id="Lager_2" data-name="Lager 2" transform="translate(5386.975 3279.95)">
        <g id="Layer_1" data-name="Layer 1">
          <path id="Path_310" data-name="Path 310" d="M13.8,26.759H12.424V16.29c0-1.067-.465-1.6-1.382-1.6a1.232,1.232,0,0,0-1.153.5,4.075,4.075,0,0,0-.3,1.89v9.682H8V18.087a12.245,12.245,0,0,1,.265-2.864,2.513,2.513,0,0,1,.931-1.5,3.273,3.273,0,0,1,1.869-.458c1.833,0,2.757,1.1,2.757,3.308Z" transform="translate(-2.27 -3.765)" fill="#f44c53"/>
          <circle id="Ellipse_23" data-name="Ellipse 23" cx="2.979" cy="2.979" r="2.979" transform="translate(21.461 15.518)" fill="#f44c53"/>
          <path id="Path_311" data-name="Path 311" d="M4,22.994H5.432V14.229a13.806,13.806,0,0,1,.387-3.717A3.1,3.1,0,0,1,7.165,8.629a5.514,5.514,0,0,1,2.707-.623,4.5,4.5,0,0,1,3.043,1,4.065,4.065,0,0,1,1.174,3.251V23h1.368V11.622a4.791,4.791,0,0,0-.716-2.556,5.013,5.013,0,0,0-1.869-1.79,5.22,5.22,0,0,0-2.542-.644q-4.368,0-4.92,2.005V0H4Z" transform="translate(-1.136)" fill="#f44c53"/>
          <rect id="Rectangle_306" data-name="Rectangle 306" width="1.461" height="22.994" fill="#f44c53"/>
          <path id="Path_312" data-name="Path 312" d="M8,0V5.729a11.7,11.7,0,0,1,3.151-.551,7.161,7.161,0,0,1,3.516.874,6.445,6.445,0,0,1,2.492,2.442,6.939,6.939,0,0,1,.866,3.523l.086,10.978h1.368V11.787a8.321,8.321,0,0,0-.587-3.194A7.834,7.834,0,0,0,17.2,6.029,7.54,7.54,0,0,0,14.717,4.3a7.34,7.34,0,0,0-2.929-.6,10.512,10.512,0,0,0-2.2.158V0Z" transform="translate(-2.271)" fill="#f44c53"/>
        </g>
      </g>
    </g>
    <g id="Group_803" data-name="Group 803" transform="translate(4004 2339)">
      <rect id="Rectangle_206" data-name="Rectangle 206" width="1920" height="1080" fill="#f44c53"/>
    </g>
    <g id="Lager_2-2" data-name="Lager 2" transform="translate(5291.562 2493.998)">
      <g id="Layer_1-2" data-name="Layer 1" transform="translate(0)">
        <rect id="Rectangle_294" data-name="Rectangle 294" width="28.987" height="132.808" transform="translate(58.309 57.941) rotate(-45)" fill="#df35b6"/>
        <rect id="Rectangle_295" data-name="Rectangle 295" width="132.808" height="28.987" transform="matrix(0.417, -0.909, 0.909, 0.417, 227.876, 162.366)" fill="#df35b6"/>
        <rect id="Rectangle_296" data-name="Rectangle 296" width="28.987" height="62.661" transform="translate(142.505 9.073) rotate(-18.24)" fill="#df35b6"/>
        <rect id="Rectangle_297" data-name="Rectangle 297" width="132.808" height="28.987" transform="matrix(0.417, -0.909, 0.909, 0.417, 0, 290.998)" fill="#df35b6"/>
        <rect id="Rectangle_298" data-name="Rectangle 298" width="186.701" height="29.104" transform="translate(321.798 178.058) rotate(-33.215)" fill="#df35b6"/>
        <rect id="Rectangle_299" data-name="Rectangle 299" width="28.987" height="92.724" transform="matrix(0.859, -0.512, 0.512, 0.859, 196.678, 214.202)" fill="#df35b6"/>
      </g>
    </g>
    <path id="Intersection_19" data-name="Intersection 19" d="M0,227.386C0,104.267,97.6,3.99,219.5,0V35.19C116.967,39.166,35.057,123.716,35.062,227.432S116.966,415.68,219.5,419.65v35.122C97.6,450.782,0,350.5,0,227.386Zm67.06.137c0-86.006,67.583-156.192,152.441-160.139v34.943c-65.563,3.91-117.522,58.428-117.515,125.1S153.944,348.6,219.5,352.513V387.66C134.643,383.712,67.06,313.527,67.06,227.523Zm64.3-.137A95.814,95.814,0,0,1,219.5,131.8V167.1a60.772,60.772,0,0,0,0,120.565v35.3A95.813,95.813,0,0,1,131.363,227.386Z" transform="translate(5704.499 2821.707)" fill="#df35b6"/>
    <path id="Intersection_20" data-name="Intersection 20" d="M0,403.319V358.746A174.789,174.789,0,0,0,180.151,236.68,218.635,218.635,0,0,1,454.327,92.988,174.136,174.136,0,0,0,587.376,81.052,174.381,174.381,0,0,0,664.558,0h47.927c-39.2,110.094-158.607,170.5-271.092,135.456A174.352,174.352,0,0,0,222.818,250.1,219.193,219.193,0,0,1,13.878,403.762Q6.96,403.763,0,403.319ZM0,239.045a174.154,174.154,0,0,0,35.18-13.82A174.462,174.462,0,0,0,120.735,122.51,218.474,218.474,0,0,1,217.308,0H559.091A218.439,218.439,0,0,1,381.643,21.095C289.665-7.555,191.877,43.737,163.066,135.743A218.881,218.881,0,0,1,55.685,264.612,218.49,218.49,0,0,1,0,284.742ZM0,95.17A174.519,174.519,0,0,0,60.841,8.2Q62.148,4.051,63.6,0h48.026a176.581,176.581,0,0,0-8.454,21.811A218.84,218.84,0,0,1,0,148.25Z" transform="translate(4004.5 2338.5)" fill="#df35b6"/>
  </g>
</svg>
