<svg xmlns="http://www.w3.org/2000/svg" width="1920" height="792.5" viewBox="0 0 1920 792.5">
  <g id="Group_767" data-name="Group 767" transform="translate(0 0.5)">
    <g id="Group_766" data-name="Group 766">
      <g id="Group_562" data-name="Group 562">
        <rect id="Rectangle_206" data-name="Rectangle 206" width="1920" height="792" fill="#f44c53"/>
      </g>
      <g id="Lager_2" data-name="Lager 2" transform="translate(1382 26)">
        <g id="Layer_1" data-name="Layer 1" transform="translate(0)">
          <rect id="Rectangle_294" data-name="Rectangle 294" width="24.267" height="111.182" transform="translate(48.815 48.506) rotate(-45)" fill="#df35b6"/>
          <rect id="Rectangle_295" data-name="Rectangle 295" width="111.182" height="24.267" transform="matrix(0.417, -0.909, 0.909, 0.417, 190.77, 135.927)" fill="#df35b6"/>
          <rect id="Rectangle_296" data-name="Rectangle 296" width="24.267" height="52.457" transform="translate(119.3 7.595) rotate(-18.24)" fill="#df35b6"/>
          <rect id="Rectangle_297" data-name="Rectangle 297" width="111.182" height="24.267" transform="matrix(0.417, -0.909, 0.909, 0.417, 0, 243.613)" fill="#df35b6"/>
          <rect id="Rectangle_298" data-name="Rectangle 298" width="156.3" height="24.365" transform="translate(269.397 149.064) rotate(-33.215)" fill="#df35b6"/>
          <rect id="Rectangle_299" data-name="Rectangle 299" width="24.267" height="77.625" transform="matrix(0.859, -0.512, 0.512, 0.859, 164.652, 179.322)" fill="#df35b6"/>
        </g>
      </g>
      <path id="Intersection_5" data-name="Intersection 5" d="M0,210.386C0,96.472,90.484,3.691,203.5,0V32.559a178,178,0,0,0,0,355.717v32.5C90.484,417.08,0,324.3,0,210.386Zm62.172.126A148.33,148.33,0,0,1,203.5,62.346v32.33a115.952,115.952,0,0,0,0,231.481v32.521A148.33,148.33,0,0,1,62.172,210.512Zm59.615-.126A88.722,88.722,0,0,1,203.5,121.945v32.666a56.214,56.214,0,0,0,0,111.55v32.666A88.722,88.722,0,0,1,121.787,210.386Z" transform="translate(1716 304.875)" fill="#df35b6"/>
      <path id="Intersection_6" data-name="Intersection 6" d="M0,346.38V308.1A150.253,150.253,0,0,0,154.866,203.267,187.98,187.98,0,0,1,390.56,79.861,149.828,149.828,0,0,0,504.935,69.609,149.82,149.82,0,0,0,571.284,0h41.2c-33.7,94.551-136.345,146.427-233.042,116.333a149.908,149.908,0,0,0-187.9,98.462A188.407,188.407,0,0,1,11.93,346.761Q5.983,346.762,0,346.38ZM0,205.3a149.778,149.778,0,0,0,30.241-11.869,149.87,149.87,0,0,0,73.547-88.214A187.659,187.659,0,0,1,186.806,0H480.619A187.935,187.935,0,0,1,328.077,18.117a150.155,150.155,0,0,0-187.9,98.462A188.023,188.023,0,0,1,47.868,227.256,188.008,188.008,0,0,1,0,244.543ZM0,81.734A149.88,149.88,0,0,0,52.3,7.04Q53.425,3.479,54.673,0H95.958A151.578,151.578,0,0,0,88.69,18.732,187.986,187.986,0,0,1,0,127.32Z" transform="translate(0.5 -0.5)" fill="#df35b6"/>
      <g id="Lager_2-2" data-name="Lager 2" transform="translate(1 514.911)">
        <g id="Layer_1-2" data-name="Layer 1" transform="translate(0)">
          <rect id="Rectangle_294-2" data-name="Rectangle 294" width="26.492" height="121.378" transform="translate(53.291 52.954) rotate(-45)" fill="#df35b6"/>
          <rect id="Rectangle_295-2" data-name="Rectangle 295" width="121.378" height="26.492" transform="matrix(0.417, -0.909, 0.909, 0.417, 208.265, 148.393)" fill="#df35b6"/>
          <rect id="Rectangle_296-2" data-name="Rectangle 296" width="26.492" height="57.268" transform="translate(130.241 8.292) rotate(-18.24)" fill="#df35b6"/>
          <rect id="Rectangle_297-2" data-name="Rectangle 297" width="121.378" height="26.492" transform="matrix(0.417, -0.909, 0.909, 0.417, 0, 265.955)" fill="#df35b6"/>
          <rect id="Rectangle_298-2" data-name="Rectangle 298" width="170.634" height="26.599" transform="translate(294.103 162.735) rotate(-33.215)" fill="#df35b6"/>
          <rect id="Rectangle_299-2" data-name="Rectangle 299" width="26.492" height="84.744" transform="matrix(0.859, -0.512, 0.512, 0.859, 179.752, 195.768)" fill="#df35b6"/>
        </g>
      </g>
    </g>
  </g>
</svg>
