<svg xmlns="http://www.w3.org/2000/svg" width="1920" height="1102.084" viewBox="0 0 1920 1102.084">
  <g id="Group_604" data-name="Group 604" transform="translate(-5108 -3941.5)">
    <g id="Group_600" data-name="Group 600" transform="translate(5108 3942)">
      <g id="Group_562" data-name="Group 562">
        <rect id="Rectangle_206" data-name="Rectangle 206" width="1920" height="990" fill="#f44c53"/>
      </g>
      <g id="Lager_2" data-name="Lager 2" transform="translate(1287.561 154.998)">
        <g id="Layer_1" data-name="Layer 1" transform="translate(0)">
          <rect id="Rectangle_294" data-name="Rectangle 294" width="24.204" height="110.896" transform="translate(48.689 48.381) rotate(-45)" fill="#df35b6"/>
          <rect id="Rectangle_295" data-name="Rectangle 295" width="110.896" height="24.204" transform="matrix(0.417, -0.909, 0.909, 0.417, 190.28, 135.578)" fill="#df35b6"/>
          <rect id="Rectangle_296" data-name="Rectangle 296" width="24.204" height="52.323" transform="translate(118.993 7.576) rotate(-18.24)" fill="#df35b6"/>
          <rect id="Rectangle_297" data-name="Rectangle 297" width="110.896" height="24.204" transform="matrix(0.417, -0.909, 0.909, 0.417, 0, 242.988)" fill="#df35b6"/>
          <rect id="Rectangle_298" data-name="Rectangle 298" width="155.898" height="24.302" transform="translate(268.706 148.681) rotate(-33.215)" fill="#df35b6"/>
          <rect id="Rectangle_299" data-name="Rectangle 299" width="24.204" height="77.426" transform="matrix(0.859, -0.512, 0.512, 0.859, 164.229, 178.862)" fill="#df35b6"/>
        </g>
      </g>
      <path id="Intersection_5" data-name="Intersection 5" d="M0,227.386C0,104.267,97.6,3.99,219.5,0V35.19C116.967,39.166,35.057,123.716,35.062,227.432S116.966,415.68,219.5,419.65v35.122C97.6,450.782,0,350.5,0,227.386Zm67.06.137c0-86.006,67.583-156.192,152.441-160.139v34.943c-65.563,3.91-117.522,58.428-117.515,125.1S153.944,348.6,219.5,352.513V387.66C134.643,383.712,67.06,313.527,67.06,227.523Zm64.3-.137A95.814,95.814,0,0,1,219.5,131.8V167.1a60.772,60.772,0,0,0,0,120.565v35.3A95.813,95.813,0,0,1,131.363,227.386Z" transform="translate(1700.499 406.707)" fill="#df35b6"/>
      <path id="Intersection_6" data-name="Intersection 6" d="M0,403.319V358.746A174.789,174.789,0,0,0,180.151,236.68,218.635,218.635,0,0,1,454.327,92.988,174.136,174.136,0,0,0,587.376,81.052,174.381,174.381,0,0,0,664.558,0h47.927c-39.2,110.094-158.607,170.5-271.092,135.456A174.352,174.352,0,0,0,222.818,250.1,219.193,219.193,0,0,1,13.878,403.762Q6.96,403.763,0,403.319ZM0,239.045a174.154,174.154,0,0,0,35.18-13.82A174.462,174.462,0,0,0,120.735,122.51,218.474,218.474,0,0,1,217.308,0H559.091A218.439,218.439,0,0,1,381.643,21.095C289.665-7.555,191.877,43.737,163.066,135.743A218.881,218.881,0,0,1,55.685,264.612,218.49,218.49,0,0,1,0,284.742ZM0,95.17A174.519,174.519,0,0,0,60.841,8.2Q62.148,4.051,63.6,0h48.026a176.581,176.581,0,0,0-8.454,21.811A218.84,218.84,0,0,1,0,148.25Z" transform="translate(0.5 -0.5)" fill="#df35b6"/>
    </g>
    <g id="Group_603" data-name="Group 603" transform="translate(-1144.5 1548)">
      <path id="Intersection_7" data-name="Intersection 7" d="M1368.143,165.083c-2.283,0-4.5-.015-6.624-.047-129.658-1.93-438.791-28.235-530.738-33.739-48.666-2.913-207.258,6.848-370.19,16.61-144.9,8.681-293.241,17.363-370.732,17.129C64.83,164.961,34.1,164.128,0,162.77V0H1920V117.188c-61.018,4.53-146.7,13.478-234.128,22.426-124.422,12.735-252.361,25.468-317.722,25.469Z" transform="translate(6252.5 3330.5)" fill="#fddbdc"/>
      <path id="Intersection_8" data-name="Intersection 8" d="M1439.034,126.993C1337.906,125.506,1096.8,105.241,1025.083,101c-37.957-2.245-161.654,5.276-288.733,12.8-113.017,6.688-228.71,13.376-289.148,13.2C323.936,126.625,23.8,103.008,0,101.12V0H1920V87.808c-41.731.507-133.562,10.054-227.989,19.6-97.047,9.811-196.834,19.622-247.809,19.621C1442.421,127.029,1440.694,127.017,1439.034,126.993Z" transform="translate(6252.5 3327.5)" fill="#f44c53"/>
    </g>
  </g>
</svg>
